<svg width="25" height="24" viewBox="0 0 25 24" fill="none" xmlns="http://www.w3.org/2000/svg">
<rect x="0.5" width="24" height="24" rx="12" fill="#444444"/>
<g clip-path="url(#clip0_2_2511)">
<path d="M6.43834 7.68339L12.3159 3.64258L13.3261 5.84666L16.9077 7.68339L18.4689 10.5303L18.6526 13.8365L17.4587 16.8671L12.0404 19.163L10.6628 18.7038L7.63221 16.8671L5.79548 13.0099L6.43834 7.68339Z" fill="#D9D9D9"/>
<path d="M16.893 14.9815C16.3175 15.8417 15.5148 16.5094 14.5714 16.9123C14.2461 17.0505 13.9105 17.1562 13.5675 17.2263C13.2245 17.2964 12.8732 17.3309 12.5177 17.3309H8.95977V14.8999H10.0481V16.23H12.5167C13.3559 16.23 14.1648 15.9799 14.8581 15.5079C15.5336 15.0453 16.059 14.4017 16.3749 13.6462C16.5927 13.126 16.7043 12.5703 16.7043 11.999C16.7043 11.1513 16.4572 10.3329 15.9892 9.63384C15.5325 8.95047 14.8956 8.41988 14.1461 8.09965C13.63 7.87884 13.0817 7.76791 12.5167 7.76791H10.0481V9.11581H8.95977V6.66802H12.5167C13.5748 6.66802 14.5943 6.98407 15.4669 7.57954C16.3186 8.1593 16.9795 8.97244 17.3777 9.92477C17.6529 10.583 17.7926 11.28 17.7926 12C17.7926 13.0685 17.4809 14.0993 16.8919 14.9815H16.893ZM7.51803 13.1365H11.9152L13.089 10.8624H7.51907V10.0064H14.4869L12.4302 13.9926H7.51907V13.1365H7.51803ZM6.53602 11.5709H10.7111L10.7132 12.427H6.53707V11.5709H6.53602ZM12.5 3L4.78571 7.5V16.5L12.5 21L20.2143 16.5V7.5L12.5 3Z" fill="#ED1C29"/>
</g>
<defs>
<clipPath id="clip0_2_2511">
<rect width="15.4286" height="18" fill="white" transform="translate(4.78571 3)"/>
</clipPath>
</defs>
</svg>
